<svg xmlns="http://www.w3.org/2000/svg" viewBox="0 0 64 64" fill="none">
  <defs>
    <linearGradient id="markGrad" x1="0%" y1="0%" x2="100%" y2="100%">
      <stop offset="0%" stop-color="#22d3ee"/>
      <stop offset="50%" stop-color="#3b6bff"/>
      <stop offset="100%" stop-color="#9333ea"/>
    </linearGradient>
  </defs>
  <rect width="64" height="64" rx="16" fill="url(#markGrad)"/>
  <path d="M 22 14
           a 2 2 0 0 1 4 0
           L 26 32
           a 7 7 0 0 1 6 -3
           h 3
           a 9 9 0 0 1 9 9
           v 4
           a 9 9 0 0 1 -9 9
           h -5
           a 8 8 0 0 1 -8 -8
           Z
           M 26 42
           a 4 4 0 0 0 4 4
           h 5
           a 4 4 0 0 0 4 -4
           v -3
           a 4 4 0 0 0 -4 -4
           h -5
           a 4 4 0 0 0 -4 4
           Z"
        fill="white"/>
</svg>
